<svg width="32" height="32" viewBox="0 0 32 32" fill="none" xmlns="http://www.w3.org/2000/svg">
<circle cx="16" cy="16" r="16" fill="#121212"/>
<rect x="8" y="7.5" width="6" height="6" rx="0.5" stroke="#FF4D00"/>
<rect x="17.5006" y="7.91406" width="1.29112" height="8.60746" rx="0.645559" transform="rotate(-45 17.5006 7.91406)" fill="#D9D9D9"/>
<rect x="23.5864" y="7" width="1.29112" height="8.60746" rx="0.645559" transform="rotate(45 23.5864 7)" fill="#D9D9D9"/>
<rect x="7.50061" y="17.913" width="1.29112" height="8.60746" rx="0.645559" transform="rotate(-45 7.50061 17.913)" fill="#D9D9D9"/>
<rect x="13.5864" y="17.0009" width="1.29112" height="8.60746" rx="0.645559" transform="rotate(45 13.5864 17.0009)" fill="#D9D9D9"/>
<rect width="1.29123" height="8.60823" rx="0.645617" transform="matrix(0.707107 -0.707106 0.707107 0.707106 17.5 17.9131)" fill="#D9D9D9"/>
<rect width="1.29123" height="8.60823" rx="0.645617" transform="matrix(0.707107 0.707106 -0.707107 0.707106 23.587 17)" fill="#D9D9D9"/>
</svg>
